HIERARCHY
ROOT Hips
{
	OFFSET 0.000000 97.167313 0.000000
	CHANNELS 6 Xposition Yposition Zposition Xrotation Yrotation Zrotation
	JOINT Spine
	{
		OFFSET 0.000000 13.784798 0.064400
		CHANNELS 3 Xrotation Yrotation Zrotation
		JOINT Spine1
		{
			OFFSET 0.000000 12.037903 0.404700
			CHANNELS 3 Xrotation Yrotation Zrotation
			JOINT Spine2
			{
				OFFSET 0.000000 17.795601 0.420200
				CHANNELS 3 Xrotation Yrotation Zrotation
				JOINT Neck
				{
					OFFSET 0.000000 39.131302 11.954600
					CHANNELS 3 Xrotation Yrotation Zrotation
					JOINT Head
					{
						OFFSET 0.000000 14.456192 15.627699
						CHANNELS 3 Xrotation Yrotation Zrotation
						JOINT HeadTop_End
						{
							OFFSET 0.000000 15.703506 7.603401
							CHANNELS 3 Xrotation Yrotation Zrotation
							End Site
							{
								OFFSET 0.000000 17.447403 0.000000
							}
						}
					}
				}
				JOINT LeftShoulder
				{
					OFFSET 17.399500 24.608795 1.168800
					CHANNELS 3 Xrotation Yrotation Zrotation
					JOINT LeftArm
					{
						OFFSET 18.980635 5.765305 1.818600
						CHANNELS 3 Xrotation Yrotation Zrotation
						JOINT LeftForeArm
						{
							OFFSET 49.290169 0.000000 0.000000
							CHANNELS 3 Xrotation Yrotation Zrotation
							JOINT LeftHand
							{
								OFFSET 31.562012 0.000000 0.000000
								CHANNELS 3 Xrotation Yrotation Zrotation
								JOINT LeftHandThumb1
								{
									OFFSET 6.133995 -4.388519 7.076070
									CHANNELS 3 Xrotation Yrotation Zrotation
									JOINT LeftHandThumb2
									{
										OFFSET 6.037666 -3.485840 3.485847
										CHANNELS 3 Xrotation Yrotation Zrotation
										JOINT LeftHandThumb3
										{
											OFFSET 6.496506 -3.750763 3.750761
											CHANNELS 3 Xrotation Yrotation Zrotation
											JOINT LeftHandThumb4
											{
												OFFSET 5.616882 -3.242905 3.242910
												CHANNELS 3 Xrotation Yrotation Zrotation
												End Site
												{
													OFFSET -1.254608 7.132141 0.375429
												}
											}
										}
									}
								}
								JOINT LeftHandPinky1
								{
									OFFSET 18.920792 -0.453171 -11.426712
									CHANNELS 3 Xrotation Yrotation Zrotation
									JOINT LeftHandPinky2
									{
										OFFSET 4.919586 0.000000 0.000000
										CHANNELS 3 Xrotation Yrotation Zrotation
										JOINT LeftHandPinky3
										{
											OFFSET 5.233047 0.000000 0.000000
											CHANNELS 3 Xrotation Yrotation Zrotation
											JOINT LeftHandPinky4
											{
												OFFSET 5.571716 0.000000 0.000000
												CHANNELS 3 Xrotation Yrotation Zrotation
												End Site
												{
													OFFSET -3.459808 4.342407 -0.466164
												}
											}
										}
									}
								}
								JOINT LeftHandRing1
								{
									OFFSET 22.726120 -0.094986 -6.500475
									CHANNELS 3 Xrotation Yrotation Zrotation
									JOINT LeftHandRing2
									{
										OFFSET 6.408615 0.000000 0.000000
										CHANNELS 3 Xrotation Yrotation Zrotation
										JOINT LeftHandRing3
										{
											OFFSET 6.150223 0.000000 0.000000
											CHANNELS 3 Xrotation Yrotation Zrotation
											JOINT LeftHandRing4
											{
												OFFSET 6.145386 0.000000 0.000000
												CHANNELS 3 Xrotation Yrotation Zrotation
												End Site
												{
													OFFSET -3.671402 4.923981 -0.202372
												}
											}
										}
									}
								}
								JOINT LeftHandMiddle1
								{
									OFFSET 23.373947 0.000000 0.000001
									CHANNELS 3 Xrotation Yrotation Zrotation
									JOINT LeftHandMiddle2
									{
										OFFSET 6.996567 0.000000 0.000000
										CHANNELS 3 Xrotation Yrotation Zrotation
										JOINT LeftHandMiddle3
										{
											OFFSET 7.015945 0.000000 0.000000
											CHANNELS 3 Xrotation Yrotation Zrotation
											JOINT LeftHandMiddle4
											{
												OFFSET 7.721573 0.000000 0.000000
												CHANNELS 3 Xrotation Yrotation Zrotation
												End Site
												{
													OFFSET -4.651108 6.158463 0.251582
												}
											}
										}
									}
								}
								JOINT LeftHandIndex1
								{
									OFFSET 21.310577 -0.490082 6.209344
									CHANNELS 3 Xrotation Yrotation Zrotation
									JOINT LeftHandIndex2
									{
										OFFSET 7.536453 0.000000 0.000000
										CHANNELS 3 Xrotation Yrotation Zrotation
										JOINT LeftHandIndex3
										{
											OFFSET 7.512344 0.000000 0.000000
											CHANNELS 3 Xrotation Yrotation Zrotation
											JOINT LeftHandIndex4
											{
												OFFSET 10.212402 0.000000 0.000001
												CHANNELS 3 Xrotation Yrotation Zrotation
												End Site
												{
													OFFSET -5.180801 8.690506 1.388433
												}
											}
										}
									}
								}
							}
						}
					}
				}
				JOINT RightShoulder
				{
					OFFSET -17.399500 24.608795 1.168800
					CHANNELS 3 Xrotation Yrotation Zrotation
					JOINT RightArm
					{
						OFFSET -18.980635 5.765305 1.818600
						CHANNELS 3 Xrotation Yrotation Zrotation
						JOINT RightForeArm
						{
							OFFSET -49.290169 0.000000 0.000000
							CHANNELS 3 Xrotation Yrotation Zrotation
							JOINT RightHand
							{
								OFFSET -31.562012 0.000000 0.000000
								CHANNELS 3 Xrotation Yrotation Zrotation
								JOINT RightHandThumb1
								{
									OFFSET -6.133995 -4.388519 7.076070
									CHANNELS 3 Xrotation Yrotation Zrotation
									JOINT RightHandThumb2
									{
										OFFSET -6.037666 -3.485840 3.485847
										CHANNELS 3 Xrotation Yrotation Zrotation
										JOINT RightHandThumb3
										{
											OFFSET -6.496506 -3.750763 3.750761
											CHANNELS 3 Xrotation Yrotation Zrotation
											JOINT RightHandThumb4
											{
												OFFSET -5.616882 -3.242905 3.242910
												CHANNELS 3 Xrotation Yrotation Zrotation
												End Site
												{
													OFFSET 1.254608 7.132141 0.375429
												}
											}
										}
									}
								}
								JOINT RightHandIndex1
								{
									OFFSET -21.310577 -0.490082 6.209344
									CHANNELS 3 Xrotation Yrotation Zrotation
									JOINT RightHandIndex2
									{
										OFFSET -7.536453 0.000000 0.000000
										CHANNELS 3 Xrotation Yrotation Zrotation
										JOINT RightHandIndex3
										{
											OFFSET -7.512344 0.000000 0.000000
											CHANNELS 3 Xrotation Yrotation Zrotation
											JOINT RightHandIndex4
											{
												OFFSET -10.212402 0.000000 0.000001
												CHANNELS 3 Xrotation Yrotation Zrotation
												End Site
												{
													OFFSET 5.180801 8.690506 1.388433
												}
											}
										}
									}
								}
								JOINT RightHandMiddle1
								{
									OFFSET -23.373947 0.000000 0.000001
									CHANNELS 3 Xrotation Yrotation Zrotation
									JOINT RightHandMiddle2
									{
										OFFSET -6.996567 0.000000 0.000000
										CHANNELS 3 Xrotation Yrotation Zrotation
										JOINT RightHandMiddle3
										{
											OFFSET -7.015945 0.000000 0.000000
											CHANNELS 3 Xrotation Yrotation Zrotation
											JOINT RightHandMiddle4
											{
												OFFSET -7.721573 0.000000 0.000000
												CHANNELS 3 Xrotation Yrotation Zrotation
												End Site
												{
													OFFSET 4.651108 6.158463 0.251582
												}
											}
										}
									}
								}
								JOINT RightHandRing1
								{
									OFFSET -22.726120 -0.094986 -6.500475
									CHANNELS 3 Xrotation Yrotation Zrotation
									JOINT RightHandRing2
									{
										OFFSET -6.408615 0.000000 0.000000
										CHANNELS 3 Xrotation Yrotation Zrotation
										JOINT RightHandRing3
										{
											OFFSET -6.150223 0.000000 0.000000
											CHANNELS 3 Xrotation Yrotation Zrotation
											JOINT RightHandRing4
											{
												OFFSET -6.145386 0.000000 0.000000
												CHANNELS 3 Xrotation Yrotation Zrotation
												End Site
												{
													OFFSET 3.671402 4.923981 -0.202372
												}
											}
										}
									}
								}
								JOINT RightHandPinky1
								{
									OFFSET -18.920792 -0.453171 -11.426712
									CHANNELS 3 Xrotation Yrotation Zrotation
									JOINT RightHandPinky2
									{
										OFFSET -4.919586 0.000000 0.000000
										CHANNELS 3 Xrotation Yrotation Zrotation
										JOINT RightHandPinky3
										{
											OFFSET -5.233047 0.000000 0.000000
											CHANNELS 3 Xrotation Yrotation Zrotation
											JOINT RightHandPinky4
											{
												OFFSET -5.571716 0.000000 0.000000
												CHANNELS 3 Xrotation Yrotation Zrotation
												End Site
												{
													OFFSET 3.459808 4.342407 -0.466164
												}
											}
										}
									}
								}
							}
						}
					}
				}
			}
		}
	}
	JOINT LeftUpLeg
	{
		OFFSET 19.899099 -7.885101 -3.429500
		CHANNELS 3 Xrotation Yrotation Zrotation
		JOINT LeftLeg
		{
			OFFSET 1.745560 -36.997807 10.304700
			CHANNELS 3 Xrotation Yrotation Zrotation
			JOINT LeftFoot
			{
				OFFSET -1.745558 -29.803308 -13.615400
				CHANNELS 3 Xrotation Yrotation Zrotation
				JOINT LeftToeBase
				{
					OFFSET 1.181900 -18.539904 15.226099
					CHANNELS 3 Xrotation Yrotation Zrotation
					JOINT LeftToe_End
					{
						OFFSET -0.863701 1.402801 16.534700
						CHANNELS 3 Xrotation Yrotation Zrotation
						End Site
						{
							OFFSET 0.000000 16.616566 0.000000
						}
					}
				}
			}
		}
	}
	JOINT RightUpLeg
	{
		OFFSET -19.899099 -7.885101 -3.429500
		CHANNELS 3 Xrotation Yrotation Zrotation
		JOINT RightLeg
		{
			OFFSET -1.745560 -36.997807 10.304700
			CHANNELS 3 Xrotation Yrotation Zrotation
			JOINT RightFoot
			{
				OFFSET 1.745558 -29.803308 -13.615400
				CHANNELS 3 Xrotation Yrotation Zrotation
				JOINT RightToeBase
				{
					OFFSET -1.181900 -18.539904 15.226099
					CHANNELS 3 Xrotation Yrotation Zrotation
					JOINT RightToe_End
					{
						OFFSET 0.863701 1.402801 16.534700
						CHANNELS 3 Xrotation Yrotation Zrotation
						End Site
						{
							OFFSET 0.000000 16.616566 0.000000
						}
					}
				}
			}
		}
	}
}
MOTION
Frames: 4
Frame Time: 0.033333
1.495121 72.273987 54.423416 19.661386 -10.196771 11.538438 20.479907 -5.635065 -1.774929 3.947837 -1.273067 -1.439526 4.304853 -1.462108 -1.365539 0.892032 2.337975 1.492483 -38.897087 12.796701 2.120305 -0.000000 -0.000000 -0.000000 2.032494 -24.551450 -14.853812 -33.415727 11.365793 -32.337599 0.000026 -74.246260 0.000008 -124.904626 16.155446 -17.878133 -16.192037 -16.343342 2.656730 3.016924 -0.401074 -0.846727 -6.654894 0.285344 13.567000 0.000002 -0.000002 -0.000002 7.096691 8.484298 -80.286224 1.723601 4.150773 -45.086540 0.654596 2.692864 -27.320892 -0.000001 -0.000001 -0.000008 5.068539 8.148382 -78.136784 1.939159 4.354450 -47.992710 1.647264 4.073425 -44.022191 -0.000000 0.000000 -0.000000 2.459893 7.299293 -69.136377 3.326249 5.279977 -64.397503 0.814455 2.981689 -30.549664 -0.000000 0.000002 0.000004 -4.136420 3.824291 -63.149996 3.524400 5.370069 -66.532374 1.034573 3.326005 -34.548770 -0.000001 0.000001 0.000002 -1.402729 29.715513 18.105653 -5.106327 36.361482 20.722087 -0.000036 99.505959 0.000083 -11.525882 -22.290358 11.904223 23.964496 13.224108 12.912430 14.680435 -21.772683 -17.391507 -3.171031 -41.648776 -32.716108 -0.000001 -0.000001 0.000002 -1.054473 1.593640 14.133288 2.072600 -3.875504 56.262853 3.103417 -4.390866 70.490817 -0.000001 -0.000003 -0.000002 2.599965 -6.446422 58.618780 5.573586 -4.566301 101.360731 4.771096 -4.655764 91.403279 -0.000000 0.000003 -0.000004 7.274323 -8.330483 67.998734 3.331314 -4.464843 73.442490 2.352464 -4.048012 60.311438 0.000001 0.000001 -0.000003 8.048472 -7.657257 79.160561 2.231772 -3.976933 58.587027 1.144165 -3.059395 41.002790 -0.000002 -0.000001 0.000004 -56.258656 8.879915 6.975258 57.735698 4.980639 0.107731 -15.802585 20.356163 -10.062286 0.113790 0.000002 0.000328 -0.000000 0.000002 -0.000000 -47.330670 0.821682 -19.699309 68.161074 1.966708 -1.386095 -39.131469 -7.022146 10.197295 -0.380544 -0.000008 0.000002 0.000000 0.000000 0.000000 
1.122723 72.558731 54.419567 19.051300 -9.817433 11.289691 20.481603 -5.577201 -1.763225 3.946456 -1.249053 -1.441750 4.391250 -1.510831 -1.357169 0.861335 2.410574 1.455566 -38.474312 12.233478 2.139210 0.000000 -0.000000 -0.000000 1.733330 -24.768733 -15.669963 -33.164199 9.958149 -31.881892 -0.000019 -72.035799 -0.000044 -125.020438 16.862967 -17.797730 -16.420898 -16.264571 2.559193 3.155129 -0.476361 -0.804813 -6.608455 0.333672 13.595118 -0.000000 -0.000000 -0.000002 7.143576 8.492656 -80.277433 1.723571 4.150741 -45.086533 0.655855 2.695312 -27.347814 0.000000 0.000000 -0.000002 5.092732 8.153171 -78.174732 1.931281 4.347377 -47.888775 1.654703 4.081082 -44.126608 -0.000002 -0.000003 0.000001 2.456884 7.297717 -69.120565 3.328218 5.280918 -64.418745 0.816345 2.984880 -30.585901 0.000001 0.000001 0.000006 -4.177334 3.794273 -63.095204 3.532760 5.373659 -66.621761 1.034576 3.326016 -34.548757 -0.000002 -0.000000 -0.000001 -1.226922 29.457960 17.484091 -5.468970 36.471305 21.966990 -0.000150 98.221686 0.000194 -11.921424 -22.153806 11.844163 23.424077 12.437456 13.774153 13.988944 -21.305457 -18.503239 -3.608388 -41.688029 -33.248094 0.000001 0.000000 0.000002 -1.030740 1.572927 13.929478 2.050567 -3.860724 55.935978 3.097070 -4.388622 70.408097 -0.000001 0.000000 -0.000003 2.331368 -6.284512 58.055406 5.572856 -4.566440 101.351381 4.771094 -4.655761 91.403285 0.000001 0.000000 -0.000009 7.233207 -8.363769 67.425080 3.271168 -4.446580 72.668145 2.281178 -4.006633 59.296362 0.000001 -0.000001 -0.000002 8.141883 -7.699700 78.848428 2.223682 -3.972011 58.470108 1.129560 -3.042538 40.728380 -0.000002 0.000000 0.000001 -55.554740 8.843292 7.101445 57.065629 4.505959 0.172624 -15.306147 20.249554 -10.092524 0.113553 -0.000003 0.000842 -0.000000 0.000002 -0.000000 -46.121863 0.413360 -19.385178 67.818943 1.423910 -1.372773 -39.437034 -7.101970 10.134145 -0.380488 0.000006 -0.000000 -0.000000 -0.000000 -0.000000 
0.749725 72.918610 54.414730 18.409291 -9.430399 11.038680 20.458898 -5.513683 -1.756630 3.939931 -1.223338 -1.441726 4.474502 -1.561400 -1.345157 0.831523 2.482761 1.418356 -38.007277 11.647587 2.153812 -0.000000 0.000000 -0.000000 1.512510 -24.830994 -16.102099 -32.551186 8.528424 -31.915654 0.000058 -69.679739 0.000039 -125.281543 17.449629 -17.948205 -16.608833 -16.199727 2.479203 3.268827 -0.537973 -0.770192 -6.570292 0.373432 13.618129 -0.000001 -0.000001 -0.000003 7.182158 8.499531 -80.270699 1.723611 4.150755 -45.086547 0.656890 2.697323 -27.369920 -0.000003 -0.000001 0.000001 5.112637 8.157093 -78.205905 1.924792 4.341533 -47.803343 1.660815 4.087362 -44.212446 0.000001 0.000002 0.000003 2.454098 7.296307 -69.107574 3.329810 5.281689 -64.436196 0.817890 2.987502 -30.615705 0.000001 -0.000001 0.000001 -4.210927 3.769529 -63.050207 3.539642 5.376626 -66.695192 1.034572 3.326027 -34.548750 -0.000001 0.000001 0.000001 -1.061427 29.149629 16.910543 -5.782045 36.572282 23.174250 -0.000028 96.985742 0.000099 -12.334702 -22.190030 11.889384 22.924649 11.683544 14.581298 13.302954 -20.821239 -19.602209 -4.023860 -41.722672 -33.753193 -0.000000 -0.000001 0.000002 -1.008411 1.553063 13.736270 2.029753 -3.846579 55.626044 3.091066 -4.386466 70.329666 -0.000000 -0.000002 0.000003 2.079525 -6.126532 57.522173 5.572105 -4.566599 101.341969 4.771096 -4.655764 91.403285 -0.000001 0.000000 -0.000008 7.191615 -8.394174 66.880987 3.214344 -4.428482 71.933913 2.214268 -3.966224 58.333996 0.000001 0.000004 0.000002 8.228282 -7.741992 78.535981 2.216009 -3.967293 58.359178 1.115795 -3.026465 40.468195 -0.000000 -0.000001 0.000000 -54.743809 8.821085 7.202782 56.235693 4.034680 0.243083 -14.731318 20.134511 -10.113094 0.117201 -0.000005 -0.000147 -0.000000 0.000000 0.000000 -44.828461 -0.016352 -19.043044 67.318126 0.850694 -1.368743 -39.636896 -7.179292 10.085730 -0.380413 -0.000011 -0.000002 0.000000 -0.000000 -0.000000 
0.379745 73.370987 54.418571 17.728383 -9.039457 10.780632 20.393415 -5.436962 -1.759097 3.920346 -1.194087 -1.436757 4.543879 -1.609692 -1.325304 0.804429 2.554225 1.380545 -37.475674 11.033476 2.161603 0.000000 -0.000000 0.000000 1.326825 -24.792735 -16.390721 -31.809451 7.046790 -32.306050 0.000041 -67.079663 0.000012 -125.469223 18.140617 -18.116515 -16.757797 -16.148155 2.415834 3.359115 -0.586675 -0.742587 -6.539756 0.405557 13.633998 -0.000001 0.000001 0.000000 7.213079 8.504936 -80.268185 1.723597 4.150768 -45.086536 0.657723 2.698917 -27.387481 -0.000002 -0.000001 0.000001 5.128430 8.160165 -78.230685 1.919655 4.336894 -47.735536 1.665673 4.092339 -44.280550 -0.000000 -0.000001 0.000003 2.451552 7.295058 -69.097219 3.331069 5.282287 -64.450082 0.819120 2.989579 -30.639341 0.000000 -0.000000 0.000001 -4.237564 3.749875 -63.014533 3.545122 5.378936 -66.753460 1.034565 3.326015 -34.548753 -0.000000 0.000001 0.000001 -0.919718 28.800169 16.441625 -5.860801 36.598104 24.241123 -0.000243 95.779360 0.000262 -12.923798 -22.342507 11.883603 22.462918 10.961883 15.337717 12.622786 -20.320327 -20.688155 -4.418463 -41.753216 -34.232536 -0.000002 -0.000001 0.000002 -0.987635 1.534916 13.553228 2.010073 -3.833078 55.332278 3.085389 -4.384456 70.255360 0.000001 -0.000001 -0.000001 1.843471 -5.972814 57.017548 5.571338 -4.566752 101.332475 4.771098 -4.655761 91.403285 -0.000003 -0.000001 -0.000009 7.151558 -8.422658 66.365123 3.160717 -4.410692 71.237924 2.151485 -3.926894 57.421810 -0.000001 -0.000000 0.000000 8.308030 -7.784072 78.223192 2.208734 -3.962816 58.253973 1.102805 -3.011196 40.221584 -0.000001 -0.000001 0.000004 -53.782894 8.820962 7.268097 55.209345 3.570897 0.319351 -14.079527 20.011838 -10.118453 0.104909 -0.000012 -0.000138 -0.000000 0.000002 -0.000000 -43.417825 -0.474978 -18.677267 66.608258 0.252267 -1.375947 -39.706693 -7.251543 10.055931 -0.380367 -0.000002 0.000002 0.000000 -0.000002 -0.000000 
